<svg width="149" height="75" viewBox="0 0 149 75" fill="none" xmlns="http://www.w3.org/2000/svg">
<path d="M74.18 74.36C33.28 74.36 0 41.08 0 0.18C0 -40.72 33.28 -74 74.18 -74C115.08 -74 148.36 -40.72 148.36 0.18C148.35 41.08 115.08 74.36 74.18 74.36ZM74.18 -70.81C35.03 -70.81 3.18997 -38.96 3.18997 0.18C3.18997 39.33 35.04 71.17 74.18 71.17C113.32 71.17 145.17 39.32 145.17 0.18C145.17 -38.96 113.32 -70.81 74.18 -70.81Z" fill="#5E4DCD"/>
<path d="M74.1801 63.99C39.0001 63.99 10.3701 35.37 10.3701 0.179993C10.3701 -35 38.9901 -63.63 74.1801 -63.63C109.36 -63.63 137.99 -35.01 137.99 0.179993C137.98 35.37 109.36 63.99 74.1801 63.99ZM74.1801 -60.44C40.7501 -60.44 13.5601 -33.24 13.5601 0.179993C13.5601 33.61 40.7601 60.8 74.1801 60.8C107.6 60.8 134.8 33.6 134.8 0.179993C134.8 -33.24 107.6 -60.44 74.1801 -60.44Z" fill="#5E4DCD"/>
<path d="M74.1797 53.62C44.7097 53.62 20.7397 29.65 20.7397 0.179993C20.7397 -29.29 44.7097 -53.26 74.1797 -53.26C103.65 -53.26 127.62 -29.29 127.62 0.179993C127.61 29.65 103.64 53.62 74.1797 53.62ZM74.1797 -50.07C46.4697 -50.07 23.9297 -27.53 23.9297 0.179993C23.9297 27.89 46.4697 50.44 74.1797 50.44C101.89 50.44 124.43 27.9 124.43 0.179993C124.43 -27.53 101.89 -50.07 74.1797 -50.07Z" fill="#5E4DCD"/>
<path d="M74.1798 43.25C50.4298 43.25 31.1099 23.93 31.1099 0.179985C31.1099 -23.57 50.4298 -42.89 74.1798 -42.89C97.9298 -42.89 117.25 -23.57 117.25 0.179985C117.25 23.93 97.9198 43.25 74.1798 43.25ZM74.1798 -39.7C52.1898 -39.7 34.2899 -21.81 34.2899 0.189987C34.2899 22.18 52.1798 40.08 74.1798 40.08C96.1798 40.08 114.07 22.19 114.07 0.189987C114.06 -21.81 96.1698 -39.7 74.1798 -39.7Z" fill="#5E4DCD"/>
</svg>
